<svg id="Layer_1" data-name="Layer 1" xmlns="http://www.w3.org/2000/svg" viewBox="0 0 200.5 200.5"><defs><style>.cls-1{fill:#071439;}</style></defs><path class="cls-1" d="M100.25.56a100,100,0,0,0-5.7,199.84l.1-23.71L32.21,141V118.67a11.27,11.27,0,1,1,9.76-.43v16.17l52.69,30.1-.06-25.85L68,120.6V103.05L43.45,86.66V54.05a11.18,11.18,0,1,1,9.74,0V81L68,90.92V77.76a11.18,11.18,0,1,1,9.74,0V114l16.87,11.44L94.4,38.7a11.2,11.2,0,1,1,9.78-.87L105.1,147l20.17-13.84V68.69a11.18,11.18,0,1,1,9.74,0v46.4l23.71-13.49V83.52a11.16,11.16,0,1,1,9.74.25v23.52l-33.45,19V138L105.2,158.74l.1,12.55.09,29.15A100,100,0,0,0,100.25.56Z"/></svg>